<svg width="61" height="60" viewBox="0 0 61 60" fill="none" xmlns="http://www.w3.org/2000/svg">
    <g clip-path="url(#clip0_123_193)">
        <path fill-rule="evenodd" clip-rule="evenodd"
            d="M30.5 60.0001C47.0684 60.0001 60.5 46.5685 60.5 30.0001C60.5 13.4316 47.0684 0.00012207 30.5 0.00012207C13.9314 0.00012207 0.5 13.4316 0.5 30.0001C0.5 46.5685 13.9314 60.0001 30.5 60.0001ZM32.7446 15.0001C32.7446 13.7575 31.7375 12.7501 30.4947 12.7501C29.2521 12.7501 28.2447 13.7575 28.2447 15.0001V17.1002C27.0871 17.3722 25.9658 17.8648 24.9999 18.6088C23.3509 19.8791 22.25 21.8228 22.25 24.2858C22.25 26.8273 23.4195 28.5995 25.0136 29.811C26.4049 30.8683 28.1713 31.5304 29.5675 32.0533L29.7097 32.1067C31.2929 32.7007 32.4527 33.1555 33.2636 33.772C33.9194 34.2706 34.25 34.7926 34.25 35.7145C34.25 36.7135 33.8519 37.3669 33.2516 37.8283C32.5895 38.3371 31.5974 38.6599 30.4963 38.6593C29.3964 38.6584 28.4064 38.3353 27.7461 37.8265C27.1473 37.3651 26.75 36.7126 26.75 35.7145C26.75 34.4716 25.7426 33.4645 24.5 33.4645C23.2574 33.4645 22.25 34.4716 22.25 35.7145C22.25 38.1775 23.3509 40.1212 24.9999 41.3914C25.9658 42.1354 27.0871 42.628 28.2447 42.9001V45.0001C28.2447 46.2427 29.2521 47.2501 30.4947 47.2501C31.7375 47.2501 32.7446 46.2427 32.7446 45.0001V42.9025C33.9038 42.6316 35.027 42.1396 35.9945 41.3956C37.6463 40.1257 38.75 38.1805 38.75 35.7145C38.75 33.1729 37.5806 31.4008 35.9864 30.1891C34.595 29.1319 32.8286 28.47 31.4324 27.9468L31.2905 27.8935C29.7072 27.2996 28.5474 26.8446 27.7364 26.2282C27.0805 25.7297 26.75 25.2076 26.75 24.2858C26.75 23.2877 27.1473 22.635 27.7461 22.1737C28.4064 21.665 29.3964 21.3418 30.4963 21.341C31.5974 21.3403 32.5895 21.663 33.2516 22.172C33.8519 22.6335 34.25 23.2867 34.25 24.2858C34.25 25.5285 35.2574 26.5358 36.5 26.5358C37.7426 26.5358 38.75 25.5285 38.75 24.2858C38.75 21.8197 37.6463 19.8746 35.9945 18.6045C35.027 17.8606 33.9038 17.3687 32.7446 17.0978V15.0001Z"
            fill="#EEEEEE" />
    </g>
    <defs>
        <clipPath id="clip0_123_193">
            <rect width="60" height="60" fill="white" transform="translate(0.5 0.00012207)" />
        </clipPath>
    </defs>
</svg>