<svg width="61" height="61" viewBox="0 0 61 61" fill="none" xmlns="http://www.w3.org/2000/svg">
    <g clip-path="url(#clip0_123_51)">
        <path
            d="M51.5 21.5001C51.5 27.2497 49.2881 30.2478 47.0576 33.2715C45.6734 35.1477 44.2817 37.0338 43.4072 39.5934C42.3356 42.729 39.8138 45.5001 36.5 45.5001H35.75C34.0931 45.5001 32.75 44.157 32.75 42.5001V33.1284C32.75 32.0577 33.3881 31.1127 34.0475 30.2691C34.6442 29.5056 35 28.5444 35 27.5001C35 25.0148 32.9852 23.0001 30.5 23.0001C28.0147 23.0001 26 25.0148 26 27.5001C26 28.5444 26.3557 29.5056 26.9525 30.2691C27.612 31.1127 28.25 32.0577 28.25 33.1284V42.5001C28.25 44.157 26.9068 45.5001 25.25 45.5001H24.5C21.1863 45.5001 18.6085 42.7569 17.678 39.5763C16.6996 36.2319 14.9964 33.6489 13.3968 31.2231C11.3648 28.1415 9.5 25.3134 9.5 21.5001C9.5 9.90215 18.902 0.500122 30.5 0.500122C42.098 0.500122 51.5 9.90215 51.5 21.5001Z"
            fill="#EEEEEE" />
        <path
            d="M22.25 58.2501C22.25 57.0075 23.2574 56.0001 24.5 56.0001H36.5C37.7426 56.0001 38.75 57.0075 38.75 58.2501C38.75 59.4927 37.7426 60.5001 36.5 60.5001H24.5C23.2574 60.5001 22.25 59.4927 22.25 58.2501Z"
            fill="#EEEEEE" />
        <path
            d="M23 48.5001C21.7574 48.5001 20.75 49.5075 20.75 50.7501C20.75 51.9927 21.7574 53.0001 23 53.0001H38C39.2426 53.0001 40.25 51.9927 40.25 50.7501C40.25 49.5075 39.2426 48.5001 38 48.5001H23Z"
            fill="#EEEEEE" />
    </g>
    <defs>
        <clipPath id="clip0_123_51">
            <rect width="60" height="60" fill="white" transform="translate(0.5 0.500122)" />
        </clipPath>
    </defs>
</svg>