<svg width="61" height="60" viewBox="0 0 61 60" fill="none" xmlns="http://www.w3.org/2000/svg">
    <g clip-path="url(#clip0_123_198)">
        <path fill-rule="evenodd" clip-rule="evenodd"
            d="M0.5 30.0001C0.5 27.5136 0.5 25.5812 0.554275 24.0001H60.4457C60.5 25.5812 60.5 27.5136 60.5 30.0001C60.5 35.5798 60.5 38.3698 59.8868 40.6588C58.2224 46.8706 53.3705 51.7225 47.1587 53.3869C44.8697 54.0001 42.0797 54.0001 36.5 54.0001H24.5C18.9202 54.0001 16.1302 54.0001 13.8413 53.3869C7.62959 51.7225 2.77774 46.8706 1.11334 40.6588C0.5 38.3698 0.5 35.5798 0.5 30.0001ZM59.8868 19.3414C60.0257 19.8597 60.1331 20.4038 60.2162 21.0001H0.783888C0.866999 20.4038 0.974441 19.8597 1.11334 19.3414C2.77774 13.1297 7.62959 8.27787 13.8413 6.61344C16.1302 6.00012 18.9202 6.00012 24.5 6.00012H36.5C42.0797 6.00012 44.8697 6.00012 47.1587 6.61344C53.3705 8.27787 58.2224 13.1297 59.8868 19.3414ZM17.75 37.5001C16.5074 37.5001 15.5 38.5075 15.5 39.7501C15.5 40.9927 16.5074 42.0001 17.75 42.0001H34.25C35.4926 42.0001 36.5 40.9927 36.5 39.7501C36.5 38.5075 35.4926 37.5001 34.25 37.5001H17.75Z"
            fill="#EEEEEE" />
    </g>
    <defs>
        <clipPath id="clip0_123_198">
            <rect width="60" height="60" fill="white" transform="translate(0.5 0.00012207)" />
        </clipPath>
    </defs>
</svg>