<svg width="36" height="36" viewBox="0 0 36 36" fill="none" xmlns="http://www.w3.org/2000/svg">
    <g clip-path="url(#clip0_46_99)">
        <path fill-rule="evenodd" clip-rule="evenodd"
            d="M18 36C27.941 36 36 27.941 36 18C36 8.05887 27.941 0 18 0C8.05887 0 0 8.05887 0 18C0 27.941 8.05887 36 18 36ZM13.6726 11.636C13.1103 11.0737 12.1985 11.0737 11.6362 11.636C11.0738 12.1984 11.0738 13.1101 11.6362 13.6725L15.9637 18L11.6362 22.3276C11.0739 22.8899 11.0739 23.8016 11.6362 24.3641C12.1986 24.9264 13.1103 24.9264 13.6727 24.3641L18.0002 20.0365L22.3276 24.3639C22.8901 24.9262 23.8018 24.9262 24.3641 24.3639C24.9264 23.8016 24.9264 22.8899 24.3641 22.3276L20.0367 18L24.3641 13.6726C24.9266 13.1102 24.9266 12.1985 24.3641 11.6361C23.8018 11.0737 22.8901 11.0737 22.3277 11.6361L18.0002 15.9636L13.6726 11.636Z"
            fill="#212121" />
    </g>
    <defs>
        <clipPath id="clip0_46_99">
            <rect width="36" height="36" fill="white" />
        </clipPath>
    </defs>
</svg>