<svg width="51" height="51" viewBox="0 0 51 51" fill="none" xmlns="http://www.w3.org/2000/svg">
    <path fill-rule="evenodd" clip-rule="evenodd"
        d="M34.1922 37.3401C30.5868 40.2546 25.9971 42 21 42C9.40203 42 0 32.598 0 21C0 9.40203 9.40203 0 21 0C32.598 0 42 9.40203 42 21C42 25.9971 40.2546 30.5868 37.3401 34.1922C37.4277 34.2573 37.5114 34.3296 37.5909 34.4091L49.5909 46.4091C50.4696 47.2878 50.4696 48.7122 49.5909 49.5909C48.7122 50.4696 47.2878 50.4696 46.4091 49.5909L34.4091 37.5909C34.3296 37.5114 34.2573 37.4277 34.1922 37.3401ZM37.5 21C37.5 30.1128 30.1128 37.5 21 37.5C11.8873 37.5 4.5 30.1128 4.5 21C4.5 11.8873 11.8873 4.5 21 4.5C30.1128 4.5 37.5 11.8873 37.5 21Z"
        fill="#212121" />
</svg>