<svg width="60" height="60" viewBox="0 0 60 60" fill="none" xmlns="http://www.w3.org/2000/svg">
<path d="M30 5C16.1925 5 5 16.1925 5 30C5 43.8075 16.1925 55 30 55C43.8075 55 55 43.8075 55 30C55 16.1925 43.8075 5 30 5Z" fill="url(#paint0_linear_86_230)"/>
<path d="M33.3838 36.6263H39.8538L40.87 30.0538H33.3838V26.4613C33.3838 23.7313 34.2763 21.31 36.83 21.31H40.9338V15.575C40.2125 15.4775 38.6875 15.265 35.8063 15.265C29.7888 15.265 26.2613 18.4425 26.2613 25.6825V30.055H20.075V36.6275H26.26V54.6925C27.485 54.875 28.7263 55 30 55C31.1513 55 32.275 54.895 33.3838 54.745V36.6263Z" fill="white"/>
<defs>
<linearGradient id="paint0_linear_86_230" x1="12.4912" y1="12.4912" x2="50.7687" y2="50.7687" gradientUnits="userSpaceOnUse">
<stop stop-color="#2AA4F4"/>
<stop offset="1" stop-color="#007AD9"/>
</linearGradient>
</defs>
</svg>
