<svg width="60" height="60" viewBox="0 0 60 60" fill="none" xmlns="http://www.w3.org/2000/svg">
<path d="M42.5212 52.4875L17.5212 52.5112C12.0212 52.5162 7.51749 48.0212 7.51124 42.5212L7.48749 17.5212C7.48249 12.0212 11.9775 7.51749 17.4775 7.51124L42.4775 7.48749C47.9775 7.48249 52.4812 11.9775 52.4875 17.4775L52.5112 42.4775C52.5175 47.9787 48.0212 52.4825 42.5212 52.4875Z" fill="url(#paint0_radial_86_233)"/>
<path d="M42.5212 52.4875L17.5212 52.5112C12.0212 52.5162 7.51749 48.0212 7.51124 42.5212L7.48749 17.5212C7.48249 12.0212 11.9775 7.51749 17.4775 7.51124L42.4775 7.48749C47.9775 7.48249 52.4812 11.9775 52.4875 17.4775L52.5112 42.4775C52.5175 47.9787 48.0212 52.4825 42.5212 52.4875Z" fill="url(#paint1_radial_86_233)"/>
<path d="M30 38.75C25.1762 38.75 21.25 34.825 21.25 30C21.25 25.175 25.1762 21.25 30 21.25C34.8237 21.25 38.75 25.175 38.75 30C38.75 34.825 34.8237 38.75 30 38.75ZM30 23.75C26.5538 23.75 23.75 26.5538 23.75 30C23.75 33.4462 26.5538 36.25 30 36.25C33.4462 36.25 36.25 33.4462 36.25 30C36.25 26.5538 33.4462 23.75 30 23.75Z" fill="white"/>
<path d="M39.375 22.5C40.4105 22.5 41.25 21.6605 41.25 20.625C41.25 19.5895 40.4105 18.75 39.375 18.75C38.3395 18.75 37.5 19.5895 37.5 20.625C37.5 21.6605 38.3395 22.5 39.375 22.5Z" fill="white"/>
<path d="M37.5 46.25H22.5C17.6762 46.25 13.75 42.325 13.75 37.5V22.5C13.75 17.675 17.6762 13.75 22.5 13.75H37.5C42.3237 13.75 46.25 17.675 46.25 22.5V37.5C46.25 42.325 42.3237 46.25 37.5 46.25ZM22.5 16.25C19.0538 16.25 16.25 19.0538 16.25 22.5V37.5C16.25 40.9463 19.0538 43.75 22.5 43.75H37.5C40.9463 43.75 43.75 40.9463 43.75 37.5V22.5C43.75 19.0538 40.9463 16.25 37.5 16.25H22.5Z" fill="white"/>
<defs>
<radialGradient id="paint0_radial_86_233" cx="0" cy="0" r="1" gradientUnits="userSpaceOnUse" gradientTransform="translate(24.225 52.5437) scale(56.1237)">
<stop stop-color="#FFDD55"/>
<stop offset="0.328" stop-color="#FF543F"/>
<stop offset="0.348" stop-color="#FC5245"/>
<stop offset="0.504" stop-color="#E64771"/>
<stop offset="0.643" stop-color="#D53E91"/>
<stop offset="0.761" stop-color="#CC39A4"/>
<stop offset="0.841" stop-color="#C837AB"/>
</radialGradient>
<radialGradient id="paint1_radial_86_233" cx="0" cy="0" r="1" gradientUnits="userSpaceOnUse" gradientTransform="translate(14.7325 6.92537) scale(37.2662 24.8305)">
<stop stop-color="#4168C9"/>
<stop offset="0.999" stop-color="#4168C9" stop-opacity="0"/>
</radialGradient>
</defs>
</svg>
