<svg width="60" height="60" viewBox="0 0 60 60" fill="none" xmlns="http://www.w3.org/2000/svg">
    <g clip-path="url(#clip0_46_96)">
        <path fill-rule="evenodd" clip-rule="evenodd"
            d="M30 60C46.5684 60 60 46.5684 60 30C60 13.4314 46.5684 0 30 0C13.4314 0 0 13.4314 0 30C0 46.5684 13.4314 60 30 60ZM22.7877 19.3934C21.8505 18.4561 20.3309 18.4561 19.3936 19.3934C18.4564 20.3306 18.4564 21.8502 19.3936 22.7875L26.6062 30L19.3937 37.2126C18.4564 38.1498 18.4564 39.6693 19.3937 40.6068C20.331 41.544 21.8506 41.544 22.7878 40.6068L30.0003 33.3942L37.2126 40.6065C38.1501 41.5437 39.6696 41.5437 40.6068 40.6065C41.544 39.6693 41.544 38.1498 40.6068 37.2126L33.3945 30L40.6068 22.7876C41.5443 21.8503 41.5443 20.3308 40.6068 19.3935C39.6696 18.4562 38.1501 18.4562 37.2129 19.3935L30.0003 26.606L22.7877 19.3934Z"
            fill="#FF0000" 
            />
    </g>
    <defs>
        <clipPath id="clip0_46_96">
            <rect width="60" height="60" fill="white" />
        </clipPath>
    </defs>
</svg>